<?xml version="1.0" encoding="utf-8"?>
<!-- Generator: Adobe Illustrator 21.1.0, SVG Export Plug-In . SVG Version: 6.00 Build 0)  -->
<svg version="1.1" id="Layer_2" xmlns="http://www.w3.org/2000/svg" xmlns:xlink="http://www.w3.org/1999/xlink" x="0px" y="0px"
	 viewBox="0 0 512 384" style="enable-background:new 0 0 512 384;" xml:space="preserve">
<style type="text/css">
	.st0{fill:#41B782;}
	.st1{fill:#35495E;}
</style>
<g>
	<polygon class="st0" points="293,0.2 256,64.2 219,0.2 96,0.2 256,277.5 416,0.2 	"/>
	<polygon class="st1" points="293,0.2 256,64.2 219,0.2 160,0.2 256,166.6 352,0.2 	"/>
</g>
<g>
	<path class="st1" d="M146.4,291.3c0-1,0.5-1.8,1.6-2.5s2.2-1,3.4-1c1.7,0,2.7,0.6,3.1,1.9l17.5,59l17.4-59c0.5-1.3,1.4-1.9,2.9-1.9
		c1.2,0,2.4,0.4,3.5,1.1s1.6,1.5,1.6,2.5c0,0.1,0,0.2,0,0.3c0,0.1,0,0.3,0,0.4l-20.2,66.1c-0.7,2-2.4,2.9-5.2,2.9
		c-2.7,0-4.4-1-5-2.9l-20.4-66.1C146.4,291.7,146.4,291.4,146.4,291.3z"/>
	<path class="st1" d="M201.1,342.2v-25.8c0-0.8,0.4-1.5,1.2-2.1s1.8-0.9,2.9-0.9c1.1,0,2,0.3,2.8,0.9s1.2,1.3,1.2,2v25.8
		c0,3,1.1,5.7,3.4,8c2.3,2.4,4.9,3.6,8.1,3.6c3,0,5.7-1.2,8-3.5s3.4-5,3.4-8.1v-25.9c0-0.7,0.4-1.4,1.2-2s1.8-0.9,2.9-0.9
		c1.2,0,2.2,0.3,2.9,0.8c0.8,0.6,1.1,1.2,1.1,2V342c0,5.1-1.9,9.6-5.8,13.4c-3.9,3.8-8.5,5.7-13.8,5.7c-5.4,0-10-1.9-13.9-5.7
		C203.1,351.7,201.1,347.3,201.1,342.2z"/>
	<path class="st1" d="M249.9,342v-10.4c0-5.1,1.9-9.5,5.8-13.2s8.5-5.6,14-5.6c5.2,0,9.6,1.7,13.4,5.2s5.7,7.8,5.7,13
		c0,1.9-0.2,3.5-0.7,4.7s-1.2,2-2.1,2.5c-1,0.5-1.9,0.8-2.7,1c-0.8,0.1-1.9,0.2-3.3,0.2h-21.8v3c0,3.6,1.3,6.6,3.9,8.7
		c2.6,2.2,6,3.3,10.2,3.3c2.2,0,4.1-0.3,5.7-1s2.9-1.3,3.9-1.9s1.8-0.9,2.4-0.9c0.9,0,1.7,0.4,2.4,1.2c0.7,0.8,1,1.7,1,2.5
		c0,1.5-1.5,3.1-4.5,4.7s-6.7,2.4-11.2,2.4c-6.5,0-11.8-1.8-15.9-5.3C252,352.4,249.9,347.7,249.9,342z M258.2,333.6h18.4
		c1.7,0,2.9-0.2,3.5-0.6s0.9-1.3,0.9-2.5c0-3-1.1-5.6-3.3-7.9c-2.2-2.3-4.9-3.4-8-3.4s-5.8,1-8.1,3.1c-2.3,2.1-3.4,4.7-3.4,7.7
		V333.6z"/>
	<path class="st1" d="M295.8,356.4c0-1.3,0.5-2.4,1.5-3.4c1-0.9,2.2-1.4,3.7-1.4c1.4,0,2.6,0.5,3.6,1.4s1.5,2.1,1.5,3.4
		s-0.5,2.4-1.5,3.3s-2.2,1.4-3.6,1.4c-1.5,0-2.7-0.5-3.7-1.4C296.3,358.7,295.8,357.6,295.8,356.4z"/>
	<path class="st1" d="M305.9,379.5c0-1.1,0.3-2,1-2.7s1.5-1.1,2.4-1.1c2.6,0,4.3-1,5.1-2.9c0.8-1.9,1.2-4.8,1.2-8.6v-48
		c0-0.9,0.4-1.5,1.1-2.1c0.8-0.5,1.7-0.8,2.9-0.8c1.2,0,2.2,0.3,3,0.8s1.2,1.2,1.2,2.1v48.2c0,5.8-1.1,10.3-3.4,13.7
		c-2.3,3.4-5.7,5.1-10.2,5.1C307.3,383.2,305.9,382,305.9,379.5z M316,299c-1-1-1.5-2.1-1.5-3.3c0-1.3,0.5-2.4,1.5-3.3
		s2.2-1.4,3.7-1.4c1.4,0,2.6,0.5,3.6,1.4s1.5,2,1.5,3.3s-0.5,2.4-1.5,3.3c-1,1-2.2,1.4-3.6,1.4C318.2,300.4,317,299.9,316,299z"/>
	<path class="st1" d="M332.7,353.7c0-0.9,0.3-1.7,0.8-2.5c0.6-0.8,1.2-1.2,2-1.2c0.5,0,1.3,0.4,2.3,1.2c1,0.8,2.4,1.6,4.3,2.4
		s4,1.2,6.6,1.2c3.3,0,5.7-0.6,7.2-1.8c1.5-1.2,2.2-2.7,2.2-4.5c0-2.2-0.8-4-2.5-5.3s-3.7-2.3-6.1-3s-4.8-1.4-7.2-2.2
		c-2.4-0.8-4.4-2.1-6.1-4s-2.5-4.4-2.5-7.4c0-3.7,1.3-7,4-9.7s6.8-4.1,12.3-4.1c3.5,0,6.7,0.5,9.6,1.6s4.4,2.3,4.4,3.6
		c0,0.8-0.3,1.7-0.9,2.7s-1.4,1.5-2.3,1.5c-0.3,0-1.5-0.5-3.8-1.5s-4.6-1.5-6.8-1.5c-3,0-5.3,0.7-6.8,2.2c-1.5,1.4-2.2,3.1-2.2,4.9
		c0,1.9,0.8,3.4,2.5,4.4c1.7,1.1,3.7,1.9,6.1,2.5s4.8,1.3,7.2,2.2c2.4,0.9,4.4,2.4,6.1,4.5s2.5,4.8,2.5,8.2c0,4.1-1.5,7.3-4.4,9.7
		c-2.9,2.4-7,3.5-12.2,3.5c-4.5,0-8.3-0.8-11.5-2.4C334.3,357.2,332.7,355.5,332.7,353.7z"/>
</g>
</svg>
